# This file uses centimeters as units for non-parametric coordinates.

mtllib door.mtl
g default
v -1.879856 0.000000 0.191832
v 1.303962 0.000000 0.191832
v -1.879856 9.754544 0.191832
v 1.303962 9.754544 0.191832
v -1.879856 9.754544 -0.185409
v 1.303962 9.754544 -0.185409
v -1.879856 0.000000 -0.185409
v 1.303962 0.000000 -0.185409
vt 0.431813 0.740444
vt 0.431813 0.732597
vt 0.846584 0.732597
vt 0.846584 0.740444
vt 0.431813 0.732597
vt 0.431813 0.724751
vt 0.846584 0.724751
vt 0.846584 0.732597
vt 0.587117 0.414144
vt 0.431813 0.414144
vt 0.431813 0.406298
vt 0.587117 0.406298
vt 0.587117 0.406298
vt 0.431813 0.406298
vt 0.431813 0.398451
vt 0.587117 0.398451
vt 0.431813 0.724751
vt 0.431813 0.569447
vt 0.846583 0.569447
vt 0.846583 0.724751
vt 0.431813 0.569447
vt 0.431813 0.414144
vt 0.846583 0.414144
vt 0.846583 0.569447
vn 0.000000 0.000000 1.000000
vn 0.000000 0.000000 1.000000
vn 0.000000 0.000000 1.000000
vn 0.000000 0.000000 1.000000
vn 0.000000 1.000000 0.000000
vn 0.000000 1.000000 0.000000
vn 0.000000 1.000000 0.000000
vn 0.000000 1.000000 0.000000
vn 0.000000 0.000000 -1.000000
vn 0.000000 0.000000 -1.000000
vn 0.000000 0.000000 -1.000000
vn 0.000000 0.000000 -1.000000
vn 0.000000 -1.000000 0.000000
vn 0.000000 -1.000000 0.000000
vn 0.000000 -1.000000 0.000000
vn 0.000000 -1.000000 0.000000
vn 1.000000 0.000000 0.000000
vn 1.000000 0.000000 0.000000
vn 1.000000 0.000000 0.000000
vn 1.000000 0.000000 0.000000
vn -1.000000 0.000000 0.000000
vn -1.000000 0.000000 0.000000
vn -1.000000 0.000000 0.000000
vn -1.000000 0.000000 0.000000
s off
g pCube69
usemtl initialShadingGroup
f 1/17/1 2/18/2 4/19/3 3/20/4
f 3/9/5 4/10/6 6/11/7 5/12/8
f 5/21/9 6/22/10 8/23/11 7/24/12
f 7/13/13 8/14/14 2/15/15 1/16/16
f 2/1/17 8/2/18 6/3/19 4/4/20
f 7/5/21 1/6/22 3/7/23 5/8/24
