<?xml version="1.0" encoding="utf-8"?>
<!-- Generator: Adobe Illustrator 23.0.2, SVG Export Plug-In . SVG Version: 6.00 Build 0)  -->
<svg version="1.1" id="Layer_1" xmlns="http://www.w3.org/2000/svg" xmlns:xlink="http://www.w3.org/1999/xlink" x="0px" y="0px"
	 viewBox="0 0 164 303.7" style="enable-background:new 0 0 164 303.7;" xml:space="preserve">
<style type="text/css">
	.st0{fill:none;stroke:#000000;stroke-width:2;stroke-linecap:square;}
</style>
<title>10 by 10 orthogonal maze</title>
<desc>10 by 10 orthogonal maze generated by The Maze Generator Website (http://www.mazegenerator.net/).</desc>
<g>
	<line class="st0" x1="2" y1="72.4" x2="66" y2="72.4"/>
	<line class="st0" x1="82" y1="72.4" x2="162" y2="72.4"/>
	<line class="st0" x1="34" y1="88.4" x2="50" y2="88.4"/>
	<line class="st0" x1="66" y1="88.4" x2="114" y2="88.4"/>
	<line class="st0" x1="66" y1="104.4" x2="82" y2="104.4"/>
	<line class="st0" x1="98" y1="104.4" x2="130" y2="104.4"/>
	<line class="st0" x1="18" y1="120.4" x2="34" y2="120.4"/>
	<line class="st0" x1="50" y1="120.4" x2="98" y2="120.4"/>
	<line class="st0" x1="18" y1="136.4" x2="66" y2="136.4"/>
	<line class="st0" x1="98" y1="136.4" x2="130" y2="136.4"/>
	<line class="st0" x1="146" y1="136.4" x2="162" y2="136.4"/>
	<line class="st0" x1="2" y1="152.4" x2="18" y2="152.4"/>
	<line class="st0" x1="34" y1="152.4" x2="50" y2="152.4"/>
	<line class="st0" x1="66" y1="152.4" x2="114" y2="152.4"/>
	<line class="st0" x1="130" y1="152.4" x2="146" y2="152.4"/>
	<line class="st0" x1="50" y1="168.4" x2="66" y2="168.4"/>
	<line class="st0" x1="82" y1="168.4" x2="98" y2="168.4"/>
	<line class="st0" x1="114" y1="168.4" x2="130" y2="168.4"/>
	<line class="st0" x1="18" y1="184.4" x2="82" y2="184.4"/>
	<line class="st0" x1="98" y1="184.4" x2="114" y2="184.4"/>
	<line class="st0" x1="130" y1="184.4" x2="146" y2="184.4"/>
	<line class="st0" x1="18" y1="200.4" x2="66" y2="200.4"/>
	<line class="st0" x1="82" y1="200.4" x2="98" y2="200.4"/>
	<line class="st0" x1="114" y1="200.4" x2="146" y2="200.4"/>
	<line class="st0" x1="34" y1="216.4" x2="114" y2="216.4"/>
	<line class="st0" x1="2" y1="232.4" x2="82" y2="232.4"/>
	<line class="st0" x1="98" y1="232.4" x2="162" y2="232.4"/>
	<line class="st0" x1="98" y1="256.2" x2="142" y2="256.2"/>
	<line class="st0" x1="38" y1="256.2" x2="82" y2="256.2"/>
	<line class="st0" x1="38" y1="302.2" x2="142" y2="302.2"/>
	<line class="st0" x1="2" y1="72.4" x2="2" y2="232.4"/>
	<line class="st0" x1="18" y1="72.4" x2="18" y2="120.4"/>
	<line class="st0" x1="18" y1="152.4" x2="18" y2="184.4"/>
	<line class="st0" x1="18" y1="216.4" x2="18" y2="232.4"/>
	<line class="st0" x1="34" y1="88.4" x2="34" y2="104.4"/>
	<line class="st0" x1="34" y1="136.4" x2="34" y2="168.4"/>
	<line class="st0" x1="34" y1="200.4" x2="34" y2="216.4"/>
	<line class="st0" x1="50" y1="88.4" x2="50" y2="136.4"/>
	<line class="st0" x1="50" y1="168.4" x2="50" y2="184.4"/>
	<line class="st0" x1="66" y1="72.4" x2="66" y2="88.4"/>
	<line class="st0" x1="66" y1="152.4" x2="66" y2="168.4"/>
	<line class="st0" x1="82" y1="88.4" x2="82" y2="104.4"/>
	<line class="st0" x1="82" y1="136.4" x2="82" y2="152.4"/>
	<line class="st0" x1="82" y1="184.4" x2="82" y2="200.4"/>
	<line class="st0" x1="98" y1="104.4" x2="98" y2="136.4"/>
	<line class="st0" x1="98" y1="168.4" x2="98" y2="184.4"/>
	<line class="st0" x1="114" y1="104.4" x2="114" y2="120.4"/>
	<line class="st0" x1="114" y1="152.4" x2="114" y2="216.4"/>
	<line class="st0" x1="130" y1="72.4" x2="130" y2="104.4"/>
	<line class="st0" x1="130" y1="120.4" x2="130" y2="152.4"/>
	<line class="st0" x1="130" y1="216.4" x2="130" y2="232.4"/>
	<line class="st0" x1="82" y1="233.2" x2="82" y2="256.2"/>
	<line class="st0" x1="98" y1="233.2" x2="98" y2="256.2"/>
	<line class="st0" x1="142" y1="256.2" x2="142" y2="302.2"/>
	<line class="st0" x1="38" y1="256.2" x2="38" y2="302.2"/>
	<line class="st0" x1="66" y1="49.4" x2="22" y2="49.4"/>
	<line class="st0" x1="126" y1="49.4" x2="82" y2="49.4"/>
	<line class="st0" x1="126" y1="3.4" x2="22" y2="3.4"/>
	<line class="st0" x1="82" y1="72.4" x2="82" y2="49.4"/>
	<line class="st0" x1="66" y1="72.4" x2="66" y2="49.4"/>
	<line class="st0" x1="22" y1="49.4" x2="22" y2="3.4"/>
	<line class="st0" x1="126" y1="49.4" x2="126" y2="3.4"/>
	<line class="st0" x1="146" y1="88.4" x2="146" y2="136.4"/>
	<line class="st0" x1="146" y1="152.4" x2="146" y2="184.4"/>
	<line class="st0" x1="146" y1="200.4" x2="146" y2="216.4"/>
	<line class="st0" x1="162" y1="72.4" x2="162" y2="232.4"/>
</g>
</svg>
